<?xml version="1.0" encoding="UTF-8"?>
<svg id="Capa_2" data-name="Capa 2" xmlns="http://www.w3.org/2000/svg" viewBox="0 0 242.15 323.96">
  <g id="Capa_1-2" data-name="Capa 1">
    <path d="M242.15,323.96H0C0,215.97,0,107.99,0,0c80.72,0,161.43,0,242.15,0,0,107.99,0,215.97,0,323.96Zm-48.55-219.32c0-15.12,.09-29.66-.09-44.21-.03-2.4-.69-5.19-2.04-7.11-8.15-11.57-16.64-22.91-24.9-34.41-1.86-2.59-4-3.49-7.2-3.47-24.53,.14-49.07,.24-73.61-.01-5.38-.05-9.08,1.79-12.14,5.92-8.17,11.05-16.44,22.02-24.59,33.09-.75,1.02-1.26,2.49-1.26,3.74,.08,14.3,.29,28.6,.43,42.9,.01,1.16-.17,2.33-.28,3.8H5.06v207.08H236.35V104.64h-42.75Z" fill="#fff"/>
    <path d="M193.6,104.64h42.75v207.34H5.06V104.9H47.93c.11-1.47,.29-2.64,.28-3.8-.15-14.3-.36-28.6-.43-42.9,0-1.26,.51-2.73,1.26-3.74,8.15-11.07,16.42-22.04,24.59-33.09,3.05-4.13,6.76-5.98,12.14-5.92,24.53,.25,49.07,.15,73.61,.01,3.2-.02,5.34,.88,7.2,3.47,8.26,11.5,16.75,22.83,24.9,34.41,1.35,1.92,2.01,4.71,2.04,7.11,.18,14.54,.09,29.09,.09,44.21Zm29.54,142.05V117.32h-29.99c0,7.01-.62,13.86,.15,20.54,1.01,8.71-2.2,14.87-8.85,19.99-3.31,2.55-6.74,3.97-10.92,3.52-6.9-.74-17.25-11.57-17.36-18.48-.14-8.42-.03-16.85-.03-25.5H85.93c0,7.87,.08,15.48-.02,23.09-.12,8.68-6.73,17.71-14.94,20.68-8.36,3.02-22.58-7.5-22.69-16.91-.11-8.97-.02-17.93-.02-26.6H18.03V246.69H223.15ZM155.71,52.69H86.22v51.95h69.49V52.69Zm-82.86-15c-2.55,2.98-4.33,5.53-6.57,7.58-3.98,3.67-5.83,8.04-5.71,13.41,.28,13.07,.58,26.14,.7,39.21,.12,14.09,.01,28.18,.06,42.26,.01,4.23,2.66,7.24,5.99,7.05,3.58-.2,5.43-2.54,5.44-6.92,.03-31.88,.06-63.75,.09-95.63,0-2.1,0-4.2,0-6.97Zm95.84,5.68c0,15.48-.1,30.17,.03,44.86,.15,16.89,.47,33.78,.8,50.67,.03,1.59,.15,3.61,1.09,4.64,1.42,1.54,3.61,2.37,5.47,3.51,1.07-1.86,2.93-3.65,3.07-5.58,.53-7.04,.69-14.12,.64-21.19-.13-18.38-1.1-36.78-.4-55.12,.36-9.61-4.28-15.39-10.71-21.78Z"/>
    <path d="M155.71,52.69v51.95H86.22V52.69h69.49Z" fill="#fff"/>
    <path d="M72.84,37.69c0,2.77,0,4.87,0,6.97-.03,31.88-.06,63.75-.09,95.63,0,4.39-1.85,6.73-5.44,6.92-3.33,.18-5.98-2.83-5.99-7.05-.05-14.09,.06-28.18-.06-42.26-.11-13.07-.42-26.14-.7-39.21-.12-5.37,1.73-9.74,5.71-13.41,2.24-2.06,4.02-4.6,6.57-7.58Z" fill="#fff"/>
    <path d="M168.69,43.37c6.43,6.39,11.07,12.17,10.71,21.78-.7,18.34,.28,36.74,.4,55.12,.05,7.06-.11,14.15-.64,21.19-.15,1.93-2,3.72-3.08,5.58-1.86-1.13-4.05-1.97-5.47-3.51-.94-1.02-1.06-3.05-1.09-4.64-.33-16.89-.65-33.78-.8-50.67-.13-14.69-.03-29.38-.03-44.86Z" fill="#fff"/>
    <path d="M95.56,216.95c-.4-.33-.8-.66-1.2-1,0,0,.08-.03,.08-.03,.38,.34,.75,.68,1.13,1.03Z" fill="#fff"/>
    <path d="M95.56,216.95c-.38-.34-.75-.68-1.13-1.03,.34,.35,.68,.69,1.02,1.04,0,0,.11-.01,.11-.01Z"/>
    <path d="M92.74,216.86s-.03-.01-.03-.02,.03,.02,.03,.02Z" fill="#fff"/>
    <rect x="86.22" y="27.38" width="69.49" height="15.99" fill="#fff"/>
  </g>
</svg>